<?xml version="1.0" encoding="UTF-8"?>
<svg width="200px" height="150px" viewBox="0 0 200 150" version="1.1" xmlns="http://www.w3.org/2000/svg" xmlns:xlink="http://www.w3.org/1999/xlink">
    <title>Analytics</title>
    <g id="Analytics" stroke="none" stroke-width="1" fill="none" fill-rule="evenodd">
        <circle id="Background" fill="#F2D70A" opacity="0.2" cx="100" cy="75" r="70"></circle>
        <rect id="ChartBackground" stroke="#F14F0A" stroke-width="2" fill="#FFFFFF" x="40" y="40" width="120" height="80" rx="4"></rect>
        <path d="M50,100 L50,60 L70,75 L90,50 L110,65 L130,40 L150,55" id="GraphLine" stroke="#F14F0A" stroke-width="2" stroke-linecap="round" stroke-linejoin="round"></path>
        <circle id="Point1" fill="#F14F0A" cx="50" cy="60" r="3"></circle>
        <circle id="Point2" fill="#F14F0A" cx="70" cy="75" r="3"></circle>
        <circle id="Point3" fill="#F14F0A" cx="90" cy="50" r="3"></circle>
        <circle id="Point4" fill="#F14F0A" cx="110" cy="65" r="3"></circle>
        <circle id="Point5" fill="#F14F0A" cx="130" cy="40" r="3"></circle>
        <circle id="Point6" fill="#F14F0A" cx="150" cy="55" r="3"></circle>
        <line x1="50" y1="100" x2="150" y2="100" id="XAxis" stroke="#CCCCCC" stroke-width="1"></line>
        <line x1="50" y1="100" x2="50" y2="40" id="YAxis" stroke="#CCCCCC" stroke-width="1"></line>
        <rect id="Bar1" fill="#F27E0A" opacity="0.7" x="60" y="85" width="10" height="15" rx="1"></rect>
        <rect id="Bar2" fill="#F27E0A" opacity="0.7" x="80" y="75" width="10" height="25" rx="1"></rect>
        <rect id="Bar3" fill="#F27E0A" opacity="0.7" x="100" y="60" width="10" height="40" rx="1"></rect>
        <rect id="Bar4" fill="#F27E0A" opacity="0.7" x="120" y="70" width="10" height="30" rx="1"></rect>
        <g id="YAxisLabels" transform="translate(35, 40)" fill="#666666">
            <text font-family="Arial" font-size="6" font-weight="normal">
                <tspan x="0" y="5">100%</tspan>
            </text>
            <text font-family="Arial" font-size="6" font-weight="normal">
                <tspan x="0" y="25">75%</tspan>
            </text>
            <text font-family="Arial" font-size="6" font-weight="normal">
                <tspan x="0" y="45">50%</tspan>
            </text>
            <text font-family="Arial" font-size="6" font-weight="normal">
                <tspan x="0" y="65">25%</tspan>
            </text>
        </g>
        <g id="XAxisLabels" transform="translate(50, 105)" fill="#666666">
            <text font-family="Arial" font-size="6" font-weight="normal" text-anchor="middle">
                <tspan x="0" y="5">Jan</tspan>
            </text>
            <text font-family="Arial" font-size="6" font-weight="normal" text-anchor="middle">
                <tspan x="20" y="5">Feb</tspan>
            </text>
            <text font-family="Arial" font-size="6" font-weight="normal" text-anchor="middle">
                <tspan x="40" y="5">Mar</tspan>
            </text>
            <text font-family="Arial" font-size="6" font-weight="normal" text-anchor="middle">
                <tspan x="60" y="5">Apr</tspan>
            </text>
            <text font-family="Arial" font-size="6" font-weight="normal" text-anchor="middle">
                <tspan x="80" y="5">May</tspan>
            </text>
            <text font-family="Arial" font-size="6" font-weight="normal" text-anchor="middle">
                <tspan x="100" y="5">Jun</tspan>
            </text>
        </g>
        <rect id="Legend1" fill="#F14F0A" x="60" y="115" width="10" height="3" rx="1"></rect>
        <text id="Legend1Label" font-family="Arial" font-size="6" font-weight="normal" fill="#666666">
            <tspan x="75" y="118">Followers</tspan>
        </text>
        <rect id="Legend2" fill="#F27E0A" opacity="0.7" x="110" y="115" width="10" height="3" rx="1"></rect>
        <text id="Legend2Label" font-family="Arial" font-size="6" font-weight="normal" fill="#666666">
            <tspan x="125" y="118">Engagement</tspan>
        </text>
    </g>
</svg>