<?xml version="1.0" encoding="UTF-8"?>
<svg width="200px" height="150px" viewBox="0 0 200 150" version="1.1" xmlns="http://www.w3.org/2000/svg" xmlns:xlink="http://www.w3.org/1999/xlink">
    <title>Welcome</title>
    <g id="Welcome" stroke="none" stroke-width="1" fill="none" fill-rule="evenodd">
        <circle id="Background" fill="#F2A10A" opacity="0.2" cx="100" cy="75" r="70"></circle>
        <path d="M100,30 C120.987,30 138,47.0132 138,68 C138,88.9868 120.987,106 100,106 C79.0132,106 62,88.9868 62,68 C62,47.0132 79.0132,30 100,30 Z" id="Phone" stroke="#F14F0A" stroke-width="2" fill="#FFFFFF"></path>
        <rect id="Screen" stroke="#F14F0A" fill="#EDEACC" x="70" y="40" width="60" height="56" rx="2"></rect>
        <circle id="Button" stroke="#F14F0A" fill="#FFFFFF" cx="100" cy="102" r="2"></circle>
        <rect id="Header" fill="#F14F0A" x="70" y="40" width="60" height="10" rx="2"></rect>
        <rect id="Content1" fill="#F27E0A" x="74" y="54" width="40" height="4" rx="1"></rect>
        <rect id="Content2" fill="#F27E0A" x="74" y="62" width="52" height="4" rx="1"></rect>
        <rect id="Content3" fill="#F27E0A" x="74" y="70" width="20" height="4" rx="1"></rect>
        <rect id="Content4" fill="#F27E0A" x="74" y="78" width="30" height="4" rx="1"></rect>
        <rect id="Content5" fill="#F27E0A" x="74" y="86" width="40" height="4" rx="1"></rect>
        <g id="Stars" transform="translate(130, 46)" fill="#F2D70A">
            <polygon id="Star1" points="10 15 4.12215 18.0902 5.24472 11.5451 0.489435 6.90983 7.06107 5.95492 10 0 12.9389 5.95492 19.5106 6.90983 14.7553 11.5451 15.8779 18.0902"></polygon>
            <polygon id="Star2" transform="translate(35, 10)" points="5 7.5 2.06107 9.04508 2.62236 5.77254 0.244718 3.45492 3.53053 2.97746 5 0 6.46947 2.97746 9.75528 3.45492 7.37764 5.77254 7.93893 9.04508"></polygon>
            <polygon id="Star3" transform="translate(25, 30)" points="7 10.5 2.88551 12.6631 3.67131 8.08156 0.342615 4.83688 4.94276 4.16844 7 0 9.05724 4.16844 13.6574 4.83688 10.3287 8.08156 11.1145 12.6631"></polygon>
        </g>
    </g>
</svg>